<?xml version="1.0" encoding="utf-8"?>
<!-- Svg Vector Icons : http://www.onlinewebfonts.com/icon -->
<!DOCTYPE svg PUBLIC "-//W3C//DTD SVG 1.1//EN" "http://www.w3.org/Graphics/SVG/1.1/DTD/svg11.dtd">
<svg fill="#fff" version="1.1" xmlns="http://www.w3.org/2000/svg" xmlns:xlink="http://www.w3.org/1999/xlink" x="0px" y="0px" viewBox="0 0 1000 1000" enable-background="new 0 0 1000 1000" xml:space="preserve">
<metadata> Svg Vector Icons : http://www.onlinewebfonts.com/icon </metadata>
<g><path d="M972.5,119.1c-9.7-9.7-22.6-15.9-36.2-17.2c-25.3-2.5-94.6,38-133.6,62.4c-55.9,34.9-140.1,94.1-223.7,177.7l-183,182.9c-23.3,23.3-23.3,61.2,0,84.5l0.9,0.8L145.8,861.3c-23.3,23.3-23.3,61.2,0,84.5c23.3,23.3,61.2,23.3,84.5,0l742.2-742.2c16.2-16.2,21.7-40.7,14-62.3C983.7,133,978.8,125.3,972.5,119.1L972.5,119.1L972.5,119.1L972.5,119.1z"/><path d="M644.4,592.7l-84.5,84.5l262.4,262.4c23.3,23.3,61.2,23.3,84.4,0c23.3-23.3,23.3-61.2,0-84.5L644.4,592.7L644.4,592.7z"/><path d="M305.7,421.2l65.6,65.6l83.3-83.3l-62.4-62.4c11.5-39.1,1.9-83.2-28.9-114c-0.3-0.3-0.7-0.5-1-0.8c-0.3-0.3-0.5-0.7-0.8-1L178.8,42.6c-7.7-7.7-20.1-7.7-27.8,0c-7.7,7.7-7.7,20.1,0,27.8L320.7,240c0,0,0.1,0.1,0.2,0.1c4.8,4.8,4.8,12.5,0,17.3c-4.8,4.8-12.5,4.8-17.3,0c0,0-0.1-0.1-0.1-0.1l0,0L133.7,87.6c-7.7-7.7-20.1-7.7-27.8,0c-7.7,7.7-7.7,20.1,0,27.8l169.7,169.8c0,0,0.1,0,0.1,0.1c4.8,4.8,4.8,12.5,0,17.3c-4.8,4.8-12.5,4.8-17.3,0c0,0,0-0.1-0.1-0.1l0,0L88.6,132.7c-7.7-7.7-20.1-7.7-27.8,0c-7.7,7.7-7.7,20.1,0,27.8l169.7,169.7c0,0,0.1,0.1,0.1,0.1c4.8,4.8,4.8,12.5,0,17.3c-4.8,4.8-12.5,4.8-17.3,0c0,0,0-0.1-0.1-0.1l0,0.1L43.5,177.8c-7.6-7.7-20.1-7.7-27.8,0c-7.7,7.7-7.7,20.1,0,27.8l182.8,182.8c0.3,0.3,0.7,0.5,1,0.8c0.3,0.3,0.5,0.7,0.8,1C228.9,418.7,268.9,429,305.7,421.2L305.7,421.2L305.7,421.2z"/><path d="M895.7,844.7L655.9,604.8L572.6,688l239.9,239.9c23,23,60.3,23,83.3,0C918.7,905,918.7,867.6,895.7,844.7L895.7,844.7L895.7,844.7z"/></g>
</svg>